<?xml version="1.0" standalone="no"?>
<!DOCTYPE svg PUBLIC "-//W3C//DTD SVG 20010904//EN"
 "http://www.w3.org/TR/2001/REC-SVG-20010904/DTD/svg10.dtd">
<svg version="1.0" xmlns="http://www.w3.org/2000/svg"
 width="200.000000pt" height="200.000000pt" viewBox="0 0 200.000000 200.000000"
 preserveAspectRatio="xMidYMid meet">
<metadata>
Created by potrace 1.10, written by Peter Selinger 2001-2011
</metadata>
<g transform="translate(0.000000,200.000000) scale(0.100000,-0.100000)"
fill="#000000" stroke="none">
<path d="M850 1581 c-30 -10 -54 -21 -52 -25 1 -3 2 -10 2 -15 0 -9 61 16 70
29 9 13 188 6 202 -7 6 -7 19 -13 28 -13 8 0 35 -16 59 -35 46 -37 81 -49 41
-15 -13 11 -27 20 -32 20 -5 0 -7 4 -4 9 3 4 -23 20 -57 34 -85 36 -184 43
-257 18z"/>
<path d="M728 1513 c-57 -51 -72 -69 -105 -128 -26 -46 -28 -58 -27 -156 1
-104 1 -107 38 -167 81 -134 215 -204 362 -189 152 16 299 154 318 298 3 19 8
43 12 54 7 20 7 20 -9 0 -9 -11 -19 -36 -23 -55 -19 -99 -94 -196 -189 -245
-51 -27 -68 -30 -144 -30 -77 0 -93 3 -153 33 -226 111 -264 415 -70 567 28
22 51 43 51 48 2 16 -21 5 -61 -30z"/>
<path d="M1231 1464 c0 -11 3 -14 6 -6 3 7 2 16 -1 19 -3 4 -6 -2 -5 -13z"/>
<path d="M901 1430 c-4 -3 -7 -16 -8 -30 -1 -14 1 -19 4 -12 3 6 9 12 14 12 6
0 7 -5 4 -10 -4 -6 -7 -76 -7 -155 0 -79 3 -149 7 -155 3 -5 2 -10 -4 -10 -5
0 -11 6 -14 13 -2 6 -4 0 -4 -15 -1 -32 6 -35 72 -34 l50 1 0 77 c-1 42 -6 82
-11 90 -6 7 -11 26 -12 41 -1 16 -6 36 -12 45 -8 14 -9 11 -10 -12 0 -17 -4
-26 -8 -20 -11 12 -3 154 9 154 5 0 9 -18 9 -39 0 -22 5 -52 11 -68 l12 -28 9
33 c5 19 8 55 6 80 l-3 47 -53 0 c-29 0 -57 -2 -61 -5z m44 -189 c3 -5 1 -12
-5 -16 -5 -3 -10 1 -10 9 0 18 6 21 15 7z m41 -54 c15 17 15 16 8 -7 -3 -14
-9 -46 -11 -72 -7 -71 -20 -58 -25 25 -5 70 4 121 10 64 3 -27 4 -28 18 -10z"/>
<path d="M1255 1420 c3 -5 8 -10 11 -10 2 0 4 5 4 10 0 6 -5 10 -11 10 -5 0
-7 -4 -4 -10z"/>
<path d="M1286 1375 c4 -8 8 -15 10 -15 2 0 4 7 4 15 0 8 -4 15 -10 15 -5 0
-7 -7 -4 -15z"/>
<path d="M1297 1320 c3 -11 9 -20 14 -20 11 0 11 3 3 24 -9 23 -23 20 -17 -4z"/>
<path d="M117 742 c-14 -15 -17 -41 -17 -140 l0 -122 88 0 c99 0 122 12 122
63 0 26 -2 27 -62 29 -47 1 -53 2 -23 5 47 5 75 27 75 60 0 21 -4 23 -57 25
-54 1 -55 2 -13 5 54 5 80 26 80 65 l0 28 -88 0 c-73 0 -92 -3 -105 -18z m178
-17 c0 -17 -8 -20 -57 -23 -49 -3 -58 -6 -58 -22 0 -24 8 -28 58 -31 33 -2 42
-7 42 -21 0 -15 -8 -18 -50 -18 -47 0 -50 -2 -50 -25 0 -24 3 -25 61 -25 57 0
60 -1 57 -22 -3 -21 -9 -23 -80 -26 -98 -4 -106 6 -106 126 0 46 2 81 5 78 4
-3 5 -35 4 -71 -1 -44 2 -65 10 -65 8 0 10 22 5 79 -3 43 -3 81 0 84 3 3 40 5
82 4 70 -2 77 -4 77 -22z"/>
<path d="M183 723 c20 -2 54 -2 75 0 20 2 3 4 -38 4 -41 0 -58 -2 -37 -4z"/>
<path d="M150 690 c0 -11 4 -20 8 -20 4 0 8 9 8 20 0 11 -4 20 -8 20 -4 0 -8
-9 -8 -20z"/>
<path d="M150 650 c0 -5 7 -10 16 -10 8 0 12 5 9 10 -3 6 -10 10 -16 10 -5 0
-9 -4 -9 -10z"/>
<path d="M178 623 c17 -2 47 -2 65 0 17 2 3 4 -33 4 -36 0 -50 -2 -32 -4z"/>
<path d="M150 600 c0 -5 5 -10 10 -10 6 0 10 5 10 10 0 6 -4 10 -10 10 -5 0
-10 -4 -10 -10z"/>
<path d="M150 560 c0 -18 6 -20 73 -18 l72 2 -62 3 c-47 3 -63 8 -63 18 0 8
-4 15 -10 15 -5 0 -10 -9 -10 -20z"/>
<path d="M120 561 c0 -6 4 -13 10 -16 6 -3 7 1 4 9 -7 18 -14 21 -14 7z"/>
<path d="M389 729 c-37 -40 -41 -55 -37 -159 3 -81 4 -85 26 -88 30 -5 75 36
69 60 -4 12 1 18 11 18 13 0 17 -9 17 -37 0 -33 3 -38 25 -41 17 -2 34 6 49
22 21 23 23 31 19 121 -4 117 -17 135 -100 135 -43 0 -54 -4 -79 -31z m140 4
c20 -17 22 -26 19 -118 -3 -86 -5 -100 -20 -103 -15 -3 -18 4 -18 37 l0 41
-39 0 c-39 0 -40 -1 -43 -37 -2 -27 -8 -39 -21 -41 -16 -3 -17 5 -15 104 3
104 4 109 28 121 35 18 84 16 109 -4z m-149 -73 c0 -5 -5 -10 -11 -10 -5 0 -7
5 -4 10 3 6 8 10 11 10 2 0 4 -4 4 -10z m-7 -121 c-4 -4 -6 18 -3 49 l5 57 3
-49 c2 -27 0 -52 -5 -57z m123 -16 c-11 -11 -19 6 -11 24 8 17 8 17 12 0 3
-10 2 -21 -1 -24z"/>
<path d="M420 721 c-30 -25 -19 -27 21 -4 28 16 31 16 60 -1 33 -19 43 -18 30
3 -5 7 -26 15 -47 18 -30 4 -45 0 -64 -16z"/>
<path d="M432 673 c3 -24 8 -28 41 -31 35 -3 37 -2 37 27 0 30 -2 31 -41 31
-38 0 -40 -1 -37 -27z m48 -13 c0 -5 -6 -10 -14 -10 -8 0 -18 5 -21 10 -3 6 3
10 14 10 12 0 21 -4 21 -10z"/>
<path d="M402 655 l-1 -35 69 0 70 0 0 35 c0 19 -4 35 -9 35 -5 0 -9 -6 -8
-12 1 -45 -2 -48 -53 -48 -49 0 -50 1 -50 30 0 42 -16 38 -18 -5z"/>
<path d="M405 570 c1 -53 15 -64 15 -12 0 23 5 42 13 45 6 3 3 6 -9 6 -17 1
-20 -5 -19 -39z"/>
<path d="M513 599 c9 -6 15 -14 12 -20 -4 -5 -1 -9 4 -9 6 0 11 9 11 20 0 14
-7 20 -22 20 -21 -1 -21 -2 -5 -11z"/>
<path d="M520 553 c0 -5 5 -15 10 -23 8 -12 10 -11 10 8 0 12 -4 22 -10 22 -5
0 -10 -3 -10 -7z"/>
<path d="M639 729 c-38 -41 -45 -71 -25 -110 15 -29 15 -33 -1 -44 -14 -11
-15 -17 -4 -42 25 -61 109 -72 166 -22 30 26 35 38 35 73 0 23 -5 47 -12 54
-9 9 -9 15 0 24 18 18 14 56 -8 78 -15 15 -33 20 -71 20 -44 0 -55 -4 -80 -31z
m111 12 c0 -6 -15 -7 -34 -4 -18 3 -36 1 -40 -5 -4 -6 11 -10 41 -9 27 0 49
-5 51 -11 2 -7 8 -12 14 -12 6 0 3 10 -8 21 -13 15 -14 20 -5 17 21 -6 35 -33
28 -52 -8 -20 -37 -21 -37 -1 0 11 -11 15 -39 15 -22 0 -43 5 -46 10 -4 6 -11
7 -17 4 -7 -5 -3 -10 10 -15 13 -5 19 -14 16 -22 -3 -8 2 -17 10 -20 10 -4 13
-1 9 9 -3 7 0 14 6 14 6 0 11 -4 11 -10 0 -5 9 -10 20 -10 54 0 79 -83 38
-127 -36 -39 -122 -24 -134 24 -9 33 -1 38 48 25 24 -6 31 -10 16 -8 -15 2
-25 -1 -22 -5 3 -5 21 -9 40 -9 31 0 35 3 32 23 -2 18 -11 23 -47 28 -49 6
-71 28 -71 71 0 39 32 68 75 68 19 0 35 -4 35 -9z m-123 -88 c-3 -10 -5 -4 -5
12 0 17 2 24 5 18 2 -7 2 -21 0 -30z m0 -105 c-3 -8 -6 -5 -6 6 -1 11 2 17 5
13 3 -3 4 -12 1 -19z"/>
<path d="M658 665 c2 -14 9 -28 14 -31 14 -9 112 -14 103 -6 -7 7 -12 8 -62
10 -26 2 -34 7 -39 27 -8 33 -23 33 -16 0z"/>
<path d="M770 600 c0 -5 5 -10 10 -10 6 0 10 5 10 10 0 6 -4 10 -10 10 -5 0
-10 -4 -10 -10z"/>
<path d="M660 548 c0 -10 117 -10 124 0 2 4 -25 7 -60 7 -35 0 -64 -3 -64 -7z"/>
<path d="M862 748 c-18 -18 -15 -35 18 -113 18 -41 30 -87 30 -112 0 -41 2
-43 28 -43 38 0 62 28 62 73 0 20 14 70 30 112 17 42 30 80 30 85 0 6 -13 10
-28 10 -29 0 -62 -26 -62 -48 0 -23 -16 -12 -27 18 -9 24 -17 30 -40 30 -16 0
-34 -5 -41 -12z m83 -48 l22 -44 20 45 c14 31 26 45 41 46 l21 2 -20 -52 c-11
-28 -23 -55 -26 -60 -3 -6 -9 -35 -12 -66 -5 -47 -9 -56 -26 -56 -17 0 -21 9
-26 56 -3 31 -18 82 -33 114 -14 31 -26 59 -26 61 0 2 10 2 21 1 14 -2 30 -20
44 -47z m-43 -36 c9 -17 13 -35 9 -43 -5 -8 -14 4 -27 36 -10 26 -21 52 -23
58 -8 19 24 -21 41 -51z m25 -131 c-3 -10 -5 -4 -5 12 0 17 2 24 5 18 2 -7 2
-21 0 -30z"/>
<path d="M917 690 c3 -11 9 -20 13 -20 5 0 6 9 3 20 -3 11 -9 20 -13 20 -5 0
-6 -9 -3 -20z"/>
<path d="M993 679 c-11 -28 -15 -31 -40 -24 -21 5 -25 4 -17 -5 21 -21 57 -7
71 28 7 17 10 32 5 32 -4 0 -13 -14 -19 -31z"/>
<path d="M953 623 c9 -2 23 -2 30 0 6 3 -1 5 -18 5 -16 0 -22 -2 -12 -5z"/>
<path d="M955 600 c4 -6 11 -8 16 -5 14 9 11 15 -7 15 -8 0 -12 -5 -9 -10z"/>
<path d="M1118 746 c-11 -8 -18 -26 -18 -45 0 -28 3 -31 30 -31 l30 0 0 -95 0
-95 28 0 c48 0 62 26 62 113 0 58 3 77 13 77 22 0 47 34 47 63 l0 27 -87 0
c-57 -1 -94 -5 -105 -14z m180 -18 c-2 -17 -11 -24 -30 -26 -27 -3 -27 -3 -30
-95 -3 -84 -5 -92 -23 -92 -18 0 -20 8 -23 92 -3 92 -3 92 -30 95 -19 2 -28 9
-30 26 -3 21 -1 22 83 22 84 0 86 -1 83 -22z m-181 -20 c-3 -8 -6 -5 -6 6 -1
11 2 17 5 13 3 -3 4 -12 1 -19z m60 -115 c-2 -16 -4 -5 -4 22 0 28 2 40 4 28
2 -13 2 -35 0 -50z"/>
<path d="M1177 723 c18 -2 50 -2 70 0 21 2 7 4 -32 4 -38 0 -55 -2 -38 -4z"/>
<path d="M1208 675 c2 -19 5 -35 7 -35 2 0 5 16 7 35 2 21 0 35 -7 35 -7 0 -9
-14 -7 -35z"/>
<path d="M1213 595 c0 -22 2 -30 4 -17 2 12 2 30 0 40 -3 9 -5 -1 -4 -23z"/>
<path d="M1385 729 l-35 -31 0 -109 0 -109 28 0 c33 0 62 27 62 58 0 13 6 22
15 22 11 0 15 -11 15 -40 0 -37 2 -40 28 -40 51 0 62 25 62 137 0 91 -2 101
-23 121 -37 35 -107 31 -152 -9z m148 2 c6 -6 8 -14 4 -17 -3 -4 -13 1 -22 10
-9 9 -32 16 -50 16 -18 0 -41 -7 -50 -16 -22 -22 -10 -32 13 -11 23 21 36 21
84 0 l38 -18 -2 -90 c-3 -82 -5 -90 -23 -90 -16 0 -21 8 -23 38 -3 35 -5 37
-38 37 -32 0 -34 -2 -34 -34 0 -39 -27 -57 -46 -32 -6 9 -13 13 -16 11 -3 -3
-5 27 -5 67 l0 73 7 -65 c8 -75 14 -54 11 36 -2 57 0 63 26 84 22 17 37 21 71
17 24 -3 49 -10 55 -16z m-46 -203 c-3 -7 -5 -2 -5 12 0 14 2 19 5 13 2 -7 2
-19 0 -25z"/>
<path d="M1430 670 c0 -28 3 -30 35 -30 32 0 35 2 35 30 0 28 -3 30 -35 30
-32 0 -35 -2 -35 -30z m40 -10 c0 -5 -7 -10 -15 -10 -8 0 -15 5 -15 10 0 6 7
10 15 10 8 0 15 -4 15 -10z"/>
<path d="M1402 658 l-2 -38 65 0 c45 0 65 4 66 13 0 6 2 22 3 35 2 12 -1 22
-6 22 -4 0 -8 -13 -8 -30 0 -30 -1 -30 -54 -30 -54 0 -55 0 -59 33 -4 31 -4
31 -5 -5z"/>
<path d="M1402 563 l1 -48 4 42 c3 29 9 43 21 46 12 3 11 5 -5 6 -21 1 -23 -3
-21 -46z"/>
<path d="M1508 603 c6 -2 13 -23 13 -46 1 -39 2 -40 8 -12 9 40 2 65 -18 64
-10 0 -11 -2 -3 -6z"/>
<path d="M1616 741 c-17 -19 -16 -22 15 -78 l32 -58 -32 -53 c-17 -29 -29 -58
-26 -63 11 -17 49 -9 77 17 l27 27 12 -27 c15 -32 57 -35 83 -7 17 19 17 22
-14 78 l-32 58 31 53 c17 29 31 57 31 62 0 22 -61 10 -83 -16 l-23 -26 -13 26
c-17 32 -60 35 -85 7z m84 -29 c11 -18 15 -32 10 -32 -6 0 -13 7 -16 15 -4 8
-10 15 -15 15 -5 0 -4 -9 3 -19 7 -12 23 -19 44 -19 23 0 34 5 37 19 3 10 1
19 -4 19 -5 0 -9 -7 -9 -15 0 -8 -4 -15 -10 -15 -13 0 -13 6 0 30 6 11 16 18
23 16 6 -1 9 -1 5 1 -16 9 -7 21 17 21 l24 0 -26 -47 c-15 -25 -30 -51 -34
-57 -5 -5 7 -35 26 -67 30 -50 33 -59 18 -64 -15 -6 -27 4 -61 53 -9 13 -14
15 -18 7 -12 -27 -46 -63 -60 -63 -21 0 -17 19 15 74 l29 49 -29 52 c-35 61
-35 62 -8 60 11 -1 29 -16 39 -33z m-54 -19 c-2 -3 4 -13 15 -24 11 -11 17
-25 13 -31 -4 -6 -16 5 -30 28 -27 45 -31 62 -9 44 9 -7 13 -15 11 -17z"/>
<path d="M1705 650 c3 -5 12 -10 20 -10 8 0 17 5 20 10 4 6 -5 10 -20 10 -15
0 -24 -4 -20 -10z"/>
<path d="M1718 623 c7 -3 16 -2 19 1 4 3 -2 6 -13 5 -11 0 -14 -3 -6 -6z"/>
<path d="M1695 600 c-3 -5 1 -10 10 -10 9 0 13 5 10 10 -3 6 -8 10 -10 10 -2
0 -7 -4 -10 -10z"/>
<path d="M1672 560 c-7 -11 -9 -20 -4 -20 4 0 13 9 20 20 7 11 9 20 4 20 -4 0
-13 -9 -20 -20z"/>
<path d="M1752 560 c7 -11 16 -20 21 -20 4 0 3 9 -3 20 -6 11 -15 20 -20 20
-6 0 -5 -9 2 -20z"/>
</g>
</svg>
